<svg xmlns="http://www.w3.org/2000/svg" viewBox="0 0 48 48"><defs><linearGradient id="g" x1="8" y1="6" x2="40" y2="42" gradientUnits="userSpaceOnUse"><stop stop-color="#f6e2b8"/><stop offset=".55" stop-color="#d9b577"/><stop offset="1" stop-color="#a8834b"/></linearGradient><radialGradient id="s" cx="22" cy="22" r="8" gradientUnits="userSpaceOnUse"><stop stop-color="#fff4dc"/><stop offset=".55" stop-color="#f0cf8f"/><stop offset="1" stop-color="#c69a57"/></radialGradient></defs><rect width="48" height="48" rx="11" fill="#12101d"/><circle cx="24" cy="24" r="19" stroke="url(#g)" stroke-width="1.2" fill="none" opacity=".75"/><g stroke="url(#g)" stroke-width="1.8" stroke-linecap="round"><path d="M32.5 24h4M31.4 28.3l3.5 2M28.3 31.4l2 3.5M24 32.5v4M19.7 31.4l-2 3.5M16.6 28.3l-3.5 2M15.5 24h-4M16.6 19.7l-3.5-2M19.7 16.6l-2-3.5M24 15.5v-4M28.3 16.6l2-3.5M31.4 19.7l3.5-2"/></g><circle cx="24" cy="24" r="6.8" fill="url(#s)"/><ellipse cx="24" cy="24" rx="16" ry="6" transform="rotate(-28 24 24)" stroke="#c9b3f0" stroke-width="1.1" fill="none" opacity=".8"/><circle cx="36.5" cy="16.3" r="2.6" fill="#c9b3f0"/></svg>
